<svg width="12" height="12" viewBox="0 0 12 12" fill="none" xmlns="http://www.w3.org/2000/svg">
<g clip-path="url(#clip0_1_495)">
<path d="M0.721267 7.69664C0.770368 7.70461 0.820059 7.70828 0.869777 7.70764L9.33554 7.70764L9.15094 7.7935C8.9705 7.8789 8.80635 7.99513 8.66583 8.13694L6.29182 10.5109C5.97916 10.8094 5.92662 11.2896 6.16733 11.6486C6.44747 12.0312 6.98471 12.1142 7.36732 11.8341C7.39823 11.8114 7.42761 11.7868 7.45522 11.7602L11.7482 7.46723C12.0837 7.13211 12.084 6.58849 11.7489 6.25299C11.7486 6.25278 11.7484 6.25254 11.7482 6.25232L7.45522 1.95935C7.11945 1.62453 6.57583 1.62528 6.24098 1.96104C6.21463 1.98747 6.19002 2.01559 6.16733 2.04521C5.92662 2.40424 5.97916 2.88438 6.29182 3.18285L8.66154 5.56115C8.78751 5.68726 8.93235 5.793 9.09084 5.87454L9.34841 5.99045L0.917026 5.99045C0.478418 5.97416 0.0936079 6.28055 0.0112095 6.71167C-0.0646954 7.17974 0.2532 7.62071 0.721267 7.69664Z" fill="white"/>
</g>
<defs>
<clipPath id="clip0_1_495">
<rect width="12" height="12" fill="white" transform="matrix(-1 0 0 -1 12 12)"/>
</clipPath>
</defs>
</svg>
