<svg width="13" height="13" viewBox="0 0 13 13" fill="none" xmlns="http://www.w3.org/2000/svg">
<g clip-path="url(#clip0_1_311)">
<path d="M9.48027 0H3.51824C1.57785 0 -0.000732422 1.57858 -0.000732422 3.51898V9.4811C-0.000732422 11.4214 1.57785 13 3.51824 13H9.48037C11.4207 13 12.9992 11.4214 12.9992 9.4811V3.51898C12.9992 1.57858 11.4207 0 9.48027 0V0ZM12.2371 9.4811C12.2371 11.0012 11.0004 12.2379 9.48027 12.2379H3.51824C1.99808 12.2379 0.761382 11.0012 0.761382 9.4811V3.51898C0.761382 1.99881 1.99808 0.762114 3.51824 0.762114H9.48037C11.0004 0.762114 12.2371 1.99881 12.2371 3.51898V9.4811Z" fill="black"/>
<path d="M7.97192 2.94531C5.19979 2.94531 2.94458 4.53986 2.94458 6.49989C2.94458 8.45993 5.19979 10.0545 7.97192 10.0545C10.7441 10.0545 12.9993 8.45993 12.9993 6.49989C12.9993 4.53986 10.7441 2.94531 7.97192 2.94531V2.94531ZM7.97192 9.29236C5.79428 9.29236 4.02246 8.03969 4.02246 6.49989C4.02246 4.96019 5.79428 3.70743 7.97192 3.70743C10.1497 3.70743 11.9214 4.96019 11.9214 6.49989C11.9214 8.03969 10.1497 9.29236 7.97192 9.29236V9.29236Z" fill="black"/>
<path d="M10.1387 1.68311C9.55949 1.68311 9.08838 2.15432 9.08838 2.73344C9.08838 3.31266 9.55949 3.78388 10.1387 3.78388C10.7179 3.78388 11.1891 3.31266 11.1891 2.73344C11.1891 2.15422 10.7179 1.68311 10.1387 1.68311ZM10.1387 3.02166C9.97983 3.02166 9.85049 2.89233 9.85049 2.73344C9.85049 2.57445 9.97983 2.44522 10.1387 2.44522C10.2977 2.44522 10.427 2.57445 10.427 2.73344C10.427 2.89233 10.2977 3.02166 10.1387 3.02166Z" fill="black"/>
</g>
<defs>
<clipPath id="clip0_1_311">
<rect width="13" height="13" fill="white" transform="translate(-0.000732422)"/>
</clipPath>
</defs>
</svg>
