<svg width="11" height="11" viewBox="0 0 11 11" fill="none" xmlns="http://www.w3.org/2000/svg">
<g clip-path="url(#clip0_1_325)">
<path d="M10.9966 11V10.9996H10.9993V6.96531C10.9993 4.99173 10.5745 3.47144 8.26722 3.47144C7.15805 3.47144 6.41372 4.0801 6.10985 4.65714H6.07776V3.65569H3.89014V10.9996H6.16805V7.36314C6.16805 6.40569 6.34955 5.47985 7.53526 5.47985C8.70355 5.47985 8.72097 6.57252 8.72097 7.42456V11H10.9966Z" fill="black"/>
<path d="M0.180664 3.65601H2.46133V10.9999H0.180664V3.65601Z" fill="black"/>
<path d="M1.32018 0C0.590976 0 -0.000732422 0.591708 -0.000732422 1.32092C-0.000732422 2.05013 0.590976 2.65421 1.32018 2.65421C2.04939 2.65421 2.6411 2.05013 2.6411 1.32092C2.64064 0.591708 2.04893 0 1.32018 0V0Z" fill="black"/>
</g>
<defs>
<clipPath id="clip0_1_325">
<rect width="11" height="11" fill="white" transform="translate(-0.000732422)"/>
</clipPath>
</defs>
</svg>
