<svg width="25" height="24" viewBox="0 0 25 24" fill="none" xmlns="http://www.w3.org/2000/svg">
<path d="M19.5 9C19.5 8.08075 19.3189 7.1705 18.9672 6.32122C18.6154 5.47194 18.0998 4.70026 17.4497 4.05025C16.7997 3.40024 16.0281 2.88463 15.1788 2.53284C14.3295 2.18106 13.4193 2 12.5 2C11.5807 2 10.6705 2.18106 9.82122 2.53284C8.97194 2.88463 8.20026 3.40024 7.55025 4.05025C6.90024 4.70026 6.38463 5.47194 6.03284 6.32122C5.68106 7.1705 5.5 8.08075 5.5 9C5.5 10.387 5.91 11.677 6.605 12.765H6.597C8.957 16.46 12.5 22 12.5 22L18.403 12.765H18.396C19.1164 11.6414 19.4995 10.3347 19.5 9ZM12.5 12C11.7044 12 10.9413 11.6839 10.3787 11.1213C9.81607 10.5587 9.5 9.79565 9.5 9C9.5 8.20435 9.81607 7.44129 10.3787 6.87868C10.9413 6.31607 11.7044 6 12.5 6C13.2956 6 14.0587 6.31607 14.6213 6.87868C15.1839 7.44129 15.5 8.20435 15.5 9C15.5 9.79565 15.1839 10.5587 14.6213 11.1213C14.0587 11.6839 13.2956 12 12.5 12Z" fill="#DC7000"/>
</svg>
