<svg width="40" height="40" viewBox="0 0 40 40" fill="none" xmlns="http://www.w3.org/2000/svg">
<g clip-path="url(#clip0_1_191)">
<path d="M8.40573 14.2411H0.220459V16.565H8.40573C9.04643 16.565 9.56768 17.0863 9.56768 17.727C9.56768 18.3676 9.04643 18.8889 8.40573 18.8889H3.70629C1.7842 18.8889 0.220459 20.4526 0.220459 22.3747V25.8606H2.54435V22.3747C2.54435 21.734 3.06559 21.2128 3.70629 21.2128H8.40573C10.3278 21.2128 11.8916 19.649 11.8916 17.727C11.8916 15.8049 10.3278 14.2411 8.40573 14.2411Z" fill="#DC7000"/>
<path d="M20.2964 14.2411C18.3743 14.2411 16.8105 15.8049 16.8105 17.727V22.3747C16.8105 23.0154 16.2893 23.5367 15.6486 23.5367H10.394V25.8606H15.6486C17.5707 25.8606 19.1344 24.2968 19.1344 22.3747V17.727C19.1344 17.0863 19.6557 16.565 20.2964 16.565H25.5509V14.2411H20.2964Z" fill="#DC7000"/>
<path d="M37.5575 21.2126V16.565C37.5575 15.2836 36.515 14.2411 35.2336 14.2411C34.7935 14.2411 34.3647 14.3651 33.9935 14.5995L26.6346 19.2472C25.9559 19.6758 25.5508 20.4106 25.5508 21.2128C25.5508 22.4942 26.5933 23.5367 27.8747 23.5367H35.2336V25.8606H37.5575V23.5367H39.8814V21.2128L37.5575 21.2126ZM35.2336 21.2126L27.8755 21.2121L35.2336 16.565V21.2126Z" fill="#DC7000"/>
</g>
<defs>
<clipPath id="clip0_1_191">
<rect width="39.661" height="39.661" fill="white" transform="translate(0.220459 0.220337)"/>
</clipPath>
</defs>
</svg>
