<svg width="25" height="24" viewBox="0 0 25 24" fill="none" xmlns="http://www.w3.org/2000/svg">
<path d="M20.8016 3H4.80164C4.2712 3 3.76249 3.21071 3.38742 3.58579C3.01235 3.96086 2.80164 4.46957 2.80164 5V9C2.80164 9.53043 3.01235 10.0391 3.38742 10.4142C3.76249 10.7893 4.2712 11 4.80164 11H20.8016C21.3321 11 21.8408 10.7893 22.2158 10.4142C22.5909 10.0391 22.8016 9.53043 22.8016 9V5C22.8016 4.46957 22.5909 3.96086 22.2158 3.58579C21.8408 3.21071 21.3321 3 20.8016 3ZM15.8016 7C15.8016 7.55228 15.3539 8 14.8016 8C14.2494 8 13.8016 7.55228 13.8016 7C13.8016 6.44772 14.2494 6 14.8016 6C15.3539 6 15.8016 6.44772 15.8016 7ZM19.8016 7C19.8016 7.55228 19.3539 8 18.8016 8C18.2494 8 17.8016 7.55228 17.8016 7C17.8016 6.44772 18.2494 6 18.8016 6C19.3539 6 19.8016 6.44772 19.8016 7ZM20.8016 13H4.80164C4.2712 13 3.76249 13.2107 3.38742 13.5858C3.01235 13.9609 2.80164 14.4696 2.80164 15V19C2.80164 19.5304 3.01235 20.0391 3.38742 20.4142C3.76249 20.7893 4.2712 21 4.80164 21H20.8016C21.3321 21 21.8408 20.7893 22.2158 20.4142C22.5909 20.0391 22.8016 19.5304 22.8016 19V15C22.8016 14.4696 22.5909 13.9609 22.2158 13.5858C21.8408 13.2107 21.3321 13 20.8016 13ZM15.8016 17C15.8016 17.5523 15.3539 18 14.8016 18C14.2494 18 13.8016 17.5523 13.8016 17C13.8016 16.4477 14.2494 16 14.8016 16C15.3539 16 15.8016 16.4477 15.8016 17ZM19.8016 17C19.8016 17.5523 19.3539 18 18.8016 18C18.2494 18 17.8016 17.5523 17.8016 17C17.8016 16.4477 18.2494 16 18.8016 16C19.3539 16 19.8016 16.4477 19.8016 17Z" fill="#DC7000"/>
</svg>
