<svg width="16" height="17" viewBox="0 0 16 17" fill="none" xmlns="http://www.w3.org/2000/svg">
<path d="M14.1891 6.16515L10.2219 5.58859L8.44847 1.99328C8.40003 1.89484 8.32034 1.81515 8.2219 1.76672C7.97503 1.64484 7.67503 1.7464 7.55159 1.99328L5.77815 5.58859L1.81097 6.16515C1.70159 6.18078 1.60159 6.23234 1.52503 6.31047C1.43247 6.4056 1.38146 6.53359 1.38322 6.66631C1.38498 6.79904 1.43936 6.92563 1.5344 7.01828L4.40472 9.81672L3.72659 13.7683C3.71069 13.8602 3.72086 13.9547 3.75595 14.0412C3.79105 14.1276 3.84966 14.2025 3.92514 14.2573C4.00062 14.3121 4.08995 14.3447 4.183 14.3513C4.27605 14.358 4.3691 14.3384 4.45159 14.2948L8.00003 12.4292L11.5485 14.2948C11.6453 14.3464 11.7578 14.3636 11.8657 14.3448C12.1375 14.298 12.3203 14.0402 12.2735 13.7683L11.5953 9.81672L14.4657 7.01828C14.5438 6.94172 14.5953 6.84172 14.611 6.73234C14.6532 6.4589 14.4625 6.20578 14.1891 6.16515Z" fill="#FEA250"/>
</svg>
