<svg width="13" height="13" viewBox="0 0 13 13" fill="none" xmlns="http://www.w3.org/2000/svg">
<g clip-path="url(#clip0_1_318)">
<path d="M12.9993 2.46919C12.5158 2.68125 12.0007 2.82181 11.4636 2.89006C12.0161 2.56019 12.4378 2.04181 12.6361 1.417C12.121 1.72412 11.5522 1.94106 10.9461 2.06213C10.457 1.54131 9.75983 1.21875 8.99933 1.21875C7.52383 1.21875 6.33595 2.41638 6.33595 3.88456C6.33595 4.09581 6.35383 4.29894 6.39771 4.49231C4.18202 4.38425 2.22146 3.32231 0.904393 1.70463C0.674455 2.10356 0.53958 2.56019 0.53958 3.05175C0.53958 3.97475 1.01489 4.79294 1.72339 5.26662C1.2952 5.2585 0.875143 5.13419 0.519268 4.93837C0.519268 4.9465 0.519268 4.95706 0.519268 4.96762C0.519268 6.26275 1.44308 7.3385 2.65452 7.58631C2.43758 7.64563 2.20114 7.67406 1.95577 7.67406C1.78514 7.67406 1.61289 7.66431 1.45121 7.62856C1.79652 8.684 2.77639 9.45994 3.94152 9.48512C3.03477 10.1944 1.88346 10.6218 0.63708 10.6218C0.418518 10.6218 0.208893 10.6121 -0.000732422 10.5852C1.17983 11.3466 2.57896 11.7812 4.08777 11.7812C8.99202 11.7812 11.6733 7.71875 11.6733 4.19737C11.6733 4.07956 11.6692 3.96581 11.6635 3.85287C12.1925 3.4775 12.6369 3.00869 12.9993 2.46919Z" fill="black"/>
</g>
<defs>
<clipPath id="clip0_1_318">
<rect width="13" height="13" fill="white" transform="translate(-0.000732422)"/>
</clipPath>
</defs>
</svg>
