<svg width="25" height="24" viewBox="0 0 25 24" fill="none" xmlns="http://www.w3.org/2000/svg">
<path fill-rule="evenodd" clip-rule="evenodd" d="M12.5 10.2C13.4548 10.2 14.3705 9.82071 15.0456 9.14558C15.7207 8.47045 16.1 7.55478 16.1 6.6C16.1 5.64522 15.7207 4.72955 15.0456 4.05442C14.3705 3.37928 13.4548 3 12.5 3C11.5452 3 10.6296 3.37928 9.95442 4.05442C9.27929 4.72955 8.90001 5.64522 8.90001 6.6C8.90001 7.55478 9.27929 8.47045 9.95442 9.14558C10.6296 9.82071 11.5452 10.2 12.5 10.2ZM7.39866 21C5.57686 21 4.04225 19.4686 4.73942 17.7855C5.16156 16.7663 5.7803 15.8403 6.56031 15.0603C7.34032 14.2803 8.26633 13.6616 9.28547 13.2394C10.3046 12.8173 11.3969 12.6 12.5 12.6C13.6031 12.6 14.6954 12.8173 15.7145 13.2394C16.7337 13.6616 17.6597 14.2803 18.4397 15.0603C19.2197 15.8403 19.8385 16.7663 20.2606 17.7855C20.9578 19.4686 19.4232 21 17.6014 21H7.39866Z" fill="#DC7000"/>
</svg>
