<svg width="34" height="34" viewBox="0 0 34 34" fill="none" xmlns="http://www.w3.org/2000/svg">
<g clip-path="url(#clip0_1_224)">
<path d="M29.7203 2.17792H4.38132C2.25276 2.18035 0.527819 3.90528 0.525391 6.03385V28.0677C0.527819 30.1963 2.25276 31.9213 4.38132 31.9237H29.7203C31.8489 31.9213 33.5738 30.1963 33.5762 28.0677V6.03385C33.5738 3.90528 31.8489 2.18035 29.7203 2.17792ZM32.4745 28.0677C32.4727 29.5881 31.2407 30.8202 29.7203 30.822H4.38132C2.86095 30.8202 1.62891 29.5881 1.62709 28.0677V6.03385C1.62891 4.51348 2.86095 3.28143 4.38132 3.27961H29.7203C31.2407 3.28143 32.4727 4.51348 32.4745 6.03385V28.0677Z" fill="#DC7000"/>
<path d="M29.7203 5.48303H4.3813C3.46863 5.48303 2.72876 6.2229 2.72876 7.13557V26.9661C2.72876 27.8788 3.46863 28.6186 4.3813 28.6186H29.7203C30.633 28.6186 31.3728 27.8788 31.3728 26.9661V7.13557C31.3728 6.2229 30.633 5.48303 29.7203 5.48303ZM17.0508 16.4251L11.0515 13.1949L17.0508 9.96473L23.0501 13.1949L17.0508 16.4251ZM23.661 14.117V20.5763L17.6016 23.8406V17.3813L23.661 14.117ZM16.4999 17.3813V23.8406L10.4406 20.5763V14.117L16.4999 17.3813ZM3.83045 7.13557C3.83045 6.83135 4.07708 6.58473 4.3813 6.58473H16.4999V9.00846L9.62867 12.7102C9.62151 12.714 9.61325 12.7157 9.60609 12.7201C9.43952 12.8201 9.338 13.0006 9.33893 13.1949V17.8121L3.83045 20.5663V7.13557ZM30.2711 26.9661C30.2711 27.2703 30.0245 27.5169 29.7203 27.5169H4.3813C4.07708 27.5169 3.83045 27.2703 3.83045 26.9661V21.798L9.33893 19.0438V20.9068C9.33904 21.1093 9.45031 21.2955 9.62867 21.3915L16.7897 25.2474C16.9527 25.3352 17.1489 25.3352 17.3119 25.2474L24.4729 21.3915C24.6513 21.2955 24.7626 21.1093 24.7627 20.9068V19.0438L30.2711 21.798V26.9661ZM30.2711 20.5663L24.7627 17.8121V13.1949C24.7626 13.0011 24.6607 12.8217 24.4944 12.7223C24.4872 12.7179 24.479 12.7162 24.4718 12.7124L17.6016 9.00846V6.58473H29.7203C30.0245 6.58473 30.2711 6.83135 30.2711 7.13557V20.5663Z" fill="#DC7000"/>
<path d="M3.83039 5.48304C4.13461 5.48304 4.38124 5.23642 4.38124 4.9322C4.38124 4.62797 4.13461 4.38135 3.83039 4.38135C3.52616 4.38135 3.27954 4.62797 3.27954 4.9322C3.27954 5.23642 3.52616 5.48304 3.83039 5.48304Z" fill="#DC7000"/>
<path d="M6.03376 5.48304C6.33798 5.48304 6.58461 5.23642 6.58461 4.9322C6.58461 4.62797 6.33798 4.38135 6.03376 4.38135C5.72953 4.38135 5.48291 4.62797 5.48291 4.9322C5.48291 5.23642 5.72953 5.48304 6.03376 5.48304Z" fill="#DC7000"/>
<path d="M8.23713 5.48304C8.54135 5.48304 8.78797 5.23642 8.78797 4.9322C8.78797 4.62797 8.54135 4.38135 8.23713 4.38135C7.9329 4.38135 7.68628 4.62797 7.68628 4.9322C7.68628 5.23642 7.9329 5.48304 8.23713 5.48304Z" fill="#DC7000"/>
<path d="M22.0084 5.48304H29.7202C30.0245 5.48304 30.2711 5.23642 30.2711 4.9322C30.2711 4.62797 30.0245 4.38135 29.7202 4.38135H22.0084C21.7041 4.38135 21.4575 4.62797 21.4575 4.9322C21.4575 5.23642 21.7041 5.48304 22.0084 5.48304Z" fill="#DC7000"/>
</g>
<defs>
<clipPath id="clip0_1_224">
<rect width="33.0508" height="33.0508" fill="white" transform="translate(0.525391 0.525421)"/>
</clipPath>
</defs>
</svg>
