<svg width="34" height="30" viewBox="0 0 34 30" fill="none" xmlns="http://www.w3.org/2000/svg">
<path d="M29.7203 0.177917H4.38132C2.25276 0.180346 0.527819 1.90528 0.525391 4.03385V26.0677C0.527819 28.1963 2.25276 29.9213 4.38132 29.9237H29.7203C31.8489 29.9213 33.5738 28.1963 33.5762 26.0677V4.03385C33.5738 1.90528 31.8489 0.180346 29.7203 0.177917ZM32.4745 26.0677C32.4727 27.5881 31.2407 28.8202 29.7203 28.822H4.38132C2.86095 28.8202 1.62891 27.5881 1.62709 26.0677V4.03385C1.62891 2.51348 2.86095 1.28143 4.38132 1.27961H29.7203C31.2407 1.28143 32.4727 2.51348 32.4745 4.03385V26.0677Z" fill="#DC7000"/>
</svg>
